<?xml version="1.0" standalone="no"?>
<!DOCTYPE svg PUBLIC "-//W3C//DTD SVG 20010904//EN"
 "http://www.w3.org/TR/2001/REC-SVG-20010904/DTD/svg10.dtd">
<svg version="1.0" xmlns="http://www.w3.org/2000/svg"
 width="430.000000pt" height="430.000000pt" viewBox="0 0 430.000000 430.000000"
 preserveAspectRatio="xMidYMid meet">
<metadata>
Created by potrace 1.14, written by Peter Selinger 2001-2017
</metadata>
<g transform="translate(0.000000,430.000000) scale(0.100000,-0.100000)"
fill="#000000" stroke="none">
<path d="M1830 4279 c-282 -61 -414 -102 -585 -182 -248 -116 -497 -296 -665
-482 -25 -27 -53 -59 -64 -70 -36 -39 -154 -201 -195 -268 -140 -228 -238
-487 -286 -752 -8 -49 -20 -106 -25 -125 -10 -39 -6 -465 4 -520 42 -215 62
-300 97 -403 61 -185 198 -453 297 -582 12 -17 31 -41 41 -55 222 -291 543
-539 871 -673 76 -31 261 -92 307 -102 10 -2 41 -9 68 -15 28 -7 59 -14 70
-15 11 -2 61 -10 110 -18 106 -17 492 -21 543 -5 18 5 43 11 55 13 42 5 103
18 177 37 41 11 92 24 114 29 21 5 48 16 60 24 11 8 31 15 44 15 23 0 281 106
292 120 3 4 14 10 25 14 25 9 260 166 303 203 127 106 197 174 276 268 33 39
73 83 88 99 15 15 28 33 28 38 0 10 34 60 63 92 9 11 17 24 17 29 0 4 7 15 15
24 8 8 13 19 10 24 -4 5 -3 15 2 21 4 7 9 22 10 33 5 29 31 65 48 65 24 0 105
189 168 395 23 74 54 221 62 290 3 33 10 76 15 95 11 47 11 351 0 420 -5 30
-12 75 -15 100 -16 128 -77 355 -134 498 -159 401 -479 782 -848 1011 -235
146 -468 235 -783 302 -148 31 -551 35 -680 8z"/>
</g>
</svg>
